<mxfile host="app.diagrams.net" modified="2021-03-08T14:11:39.943Z" agent="5.0 (Macintosh)" etag="CfiSx8_FwpARxlwKrZNA" version="14.4.4" type="github">
  <diagram id="R2lEEEUBdFMjLlhIrx00" name="Page-1">
    <mxGraphModel dx="810" dy="566" grid="1" gridSize="10" guides="1" tooltips="1" connect="1" arrows="1" fold="1" page="1" pageScale="1" pageWidth="850" pageHeight="1100" math="0" shadow="0" extFonts="Permanent Marker^https://fonts.googleapis.com/css?family=Permanent+Marker">
      <root>
        <mxCell id="0" />
        <mxCell id="1" parent="0" />
        <mxCell id="7h_Nxt9xkPaAKm6GFx3f-1" value="&lt;b&gt;Evidence Level&lt;/b&gt;" style="rounded=0;whiteSpace=wrap;html=1;" vertex="1" parent="1">
          <mxGeometry x="200" y="300" width="120" height="60" as="geometry" />
        </mxCell>
        <mxCell id="7h_Nxt9xkPaAKm6GFx3f-3" value="Reshare" style="rounded=0;whiteSpace=wrap;html=1;fontStyle=1" vertex="1" parent="1">
          <mxGeometry x="500" y="300" width="120" height="60" as="geometry" />
        </mxCell>
        <mxCell id="7h_Nxt9xkPaAKm6GFx3f-4" value="Age" style="rounded=0;whiteSpace=wrap;html=1;strokeColor=#808080;" vertex="1" parent="1">
          <mxGeometry x="250" y="150" width="70" height="40" as="geometry" />
        </mxCell>
        <mxCell id="7h_Nxt9xkPaAKm6GFx3f-5" value="Movements" style="rounded=0;whiteSpace=wrap;html=1;strokeColor=#808080;" vertex="1" parent="1">
          <mxGeometry x="370" y="150" width="80" height="40" as="geometry" />
        </mxCell>
        <mxCell id="7h_Nxt9xkPaAKm6GFx3f-6" value="Medias" style="rounded=0;whiteSpace=wrap;html=1;strokeColor=#808080;" vertex="1" parent="1">
          <mxGeometry x="500" y="150" width="80" height="40" as="geometry" />
        </mxCell>
        <mxCell id="7h_Nxt9xkPaAKm6GFx3f-8" value="" style="endArrow=classic;html=1;exitX=1;exitY=0.5;exitDx=0;exitDy=0;entryX=0;entryY=0.5;entryDx=0;entryDy=0;strokeWidth=6;" edge="1" parent="1" source="7h_Nxt9xkPaAKm6GFx3f-1" target="7h_Nxt9xkPaAKm6GFx3f-3">
          <mxGeometry width="50" height="50" relative="1" as="geometry">
            <mxPoint x="400" y="320" as="sourcePoint" />
            <mxPoint x="450" y="270" as="targetPoint" />
          </mxGeometry>
        </mxCell>
        <mxCell id="7h_Nxt9xkPaAKm6GFx3f-9" value="" style="endArrow=classic;html=1;strokeWidth=6;exitX=0.5;exitY=1;exitDx=0;exitDy=0;" edge="1" parent="1" source="7h_Nxt9xkPaAKm6GFx3f-7">
          <mxGeometry relative="1" as="geometry">
            <mxPoint x="370" y="300" as="sourcePoint" />
            <mxPoint x="410" y="330" as="targetPoint" />
          </mxGeometry>
        </mxCell>
        <mxCell id="7h_Nxt9xkPaAKm6GFx3f-10" value="Moderating Variable" style="edgeLabel;resizable=0;html=1;align=center;verticalAlign=middle;" connectable="0" vertex="1" parent="7h_Nxt9xkPaAKm6GFx3f-9">
          <mxGeometry relative="1" as="geometry" />
        </mxCell>
        <mxCell id="7h_Nxt9xkPaAKm6GFx3f-11" value="" style="endArrow=classic;startArrow=classic;html=1;strokeWidth=2;entryX=0.25;entryY=1;entryDx=0;entryDy=0;exitX=0.5;exitY=0;exitDx=0;exitDy=0;dashed=1;strokeColor=#808080;" edge="1" parent="1" source="7h_Nxt9xkPaAKm6GFx3f-1" target="7h_Nxt9xkPaAKm6GFx3f-4">
          <mxGeometry width="50" height="50" relative="1" as="geometry">
            <mxPoint x="400" y="320" as="sourcePoint" />
            <mxPoint x="450" y="270" as="targetPoint" />
          </mxGeometry>
        </mxCell>
        <mxCell id="7h_Nxt9xkPaAKm6GFx3f-12" value="" style="endArrow=classic;startArrow=classic;html=1;strokeWidth=2;entryX=0.5;entryY=1;entryDx=0;entryDy=0;exitX=0;exitY=0.5;exitDx=0;exitDy=0;dashed=1;strokeColor=#808080;" edge="1" parent="1" source="7h_Nxt9xkPaAKm6GFx3f-7" target="7h_Nxt9xkPaAKm6GFx3f-4">
          <mxGeometry width="50" height="50" relative="1" as="geometry">
            <mxPoint x="270" y="310" as="sourcePoint" />
            <mxPoint x="295" y="200" as="targetPoint" />
          </mxGeometry>
        </mxCell>
        <mxCell id="7h_Nxt9xkPaAKm6GFx3f-13" value="" style="endArrow=classic;startArrow=classic;html=1;strokeWidth=2;entryX=0.75;entryY=1;entryDx=0;entryDy=0;exitX=0;exitY=0;exitDx=0;exitDy=0;dashed=1;strokeColor=#808080;" edge="1" parent="1" source="7h_Nxt9xkPaAKm6GFx3f-3" target="7h_Nxt9xkPaAKm6GFx3f-4">
          <mxGeometry width="50" height="50" relative="1" as="geometry">
            <mxPoint x="380" y="250" as="sourcePoint" />
            <mxPoint x="312.5" y="200" as="targetPoint" />
          </mxGeometry>
        </mxCell>
        <mxCell id="7h_Nxt9xkPaAKm6GFx3f-14" value="" style="endArrow=classic;startArrow=classic;html=1;strokeWidth=2;entryX=0;entryY=1;entryDx=0;entryDy=0;exitX=0.75;exitY=0;exitDx=0;exitDy=0;dashed=1;strokeColor=#808080;" edge="1" parent="1" source="7h_Nxt9xkPaAKm6GFx3f-1" target="7h_Nxt9xkPaAKm6GFx3f-5">
          <mxGeometry width="50" height="50" relative="1" as="geometry">
            <mxPoint x="510" y="310" as="sourcePoint" />
            <mxPoint x="312.5" y="200" as="targetPoint" />
          </mxGeometry>
        </mxCell>
        <mxCell id="7h_Nxt9xkPaAKm6GFx3f-15" value="" style="endArrow=classic;startArrow=classic;html=1;strokeWidth=2;entryX=0.5;entryY=1;entryDx=0;entryDy=0;exitX=0.5;exitY=0;exitDx=0;exitDy=0;dashed=1;strokeColor=#808080;" edge="1" parent="1" source="7h_Nxt9xkPaAKm6GFx3f-7" target="7h_Nxt9xkPaAKm6GFx3f-5">
          <mxGeometry width="50" height="50" relative="1" as="geometry">
            <mxPoint x="300" y="310" as="sourcePoint" />
            <mxPoint x="380" y="200" as="targetPoint" />
          </mxGeometry>
        </mxCell>
        <mxCell id="7h_Nxt9xkPaAKm6GFx3f-16" value="" style="endArrow=classic;startArrow=classic;html=1;strokeWidth=2;entryX=1;entryY=1;entryDx=0;entryDy=0;exitX=0.25;exitY=0;exitDx=0;exitDy=0;dashed=1;strokeColor=#808080;" edge="1" parent="1" source="7h_Nxt9xkPaAKm6GFx3f-3" target="7h_Nxt9xkPaAKm6GFx3f-5">
          <mxGeometry width="50" height="50" relative="1" as="geometry">
            <mxPoint x="420" y="230" as="sourcePoint" />
            <mxPoint x="420" y="200" as="targetPoint" />
          </mxGeometry>
        </mxCell>
        <mxCell id="7h_Nxt9xkPaAKm6GFx3f-17" value="" style="endArrow=classic;startArrow=classic;html=1;strokeWidth=2;entryX=0.5;entryY=1;entryDx=0;entryDy=0;exitX=0.5;exitY=0;exitDx=0;exitDy=0;dashed=1;strokeColor=#808080;" edge="1" parent="1" source="7h_Nxt9xkPaAKm6GFx3f-3" target="7h_Nxt9xkPaAKm6GFx3f-6">
          <mxGeometry width="50" height="50" relative="1" as="geometry">
            <mxPoint x="540" y="310" as="sourcePoint" />
            <mxPoint x="460" y="200" as="targetPoint" />
          </mxGeometry>
        </mxCell>
        <mxCell id="7h_Nxt9xkPaAKm6GFx3f-18" value="" style="endArrow=classic;startArrow=classic;html=1;strokeWidth=2;entryX=0.25;entryY=1;entryDx=0;entryDy=0;exitX=1;exitY=0.5;exitDx=0;exitDy=0;dashed=1;strokeColor=#808080;" edge="1" parent="1" source="7h_Nxt9xkPaAKm6GFx3f-7" target="7h_Nxt9xkPaAKm6GFx3f-6">
          <mxGeometry width="50" height="50" relative="1" as="geometry">
            <mxPoint x="570" y="310" as="sourcePoint" />
            <mxPoint x="550" y="200" as="targetPoint" />
          </mxGeometry>
        </mxCell>
        <mxCell id="7h_Nxt9xkPaAKm6GFx3f-19" value="" style="endArrow=classic;startArrow=classic;html=1;strokeWidth=2;entryX=0;entryY=1;entryDx=0;entryDy=0;exitX=1;exitY=0;exitDx=0;exitDy=0;dashed=1;strokeColor=#808080;" edge="1" parent="1" source="7h_Nxt9xkPaAKm6GFx3f-1" target="7h_Nxt9xkPaAKm6GFx3f-6">
          <mxGeometry width="50" height="50" relative="1" as="geometry">
            <mxPoint x="460" y="250" as="sourcePoint" />
            <mxPoint x="530" y="200" as="targetPoint" />
          </mxGeometry>
        </mxCell>
        <mxCell id="7h_Nxt9xkPaAKm6GFx3f-7" value="Content Warning" style="rounded=0;whiteSpace=wrap;html=1;fontStyle=1" vertex="1" parent="1">
          <mxGeometry x="370" y="220" width="80" height="40" as="geometry" />
        </mxCell>
      </root>
    </mxGraphModel>
  </diagram>
</mxfile>
